<?xml version="1.0" encoding="utf-8"?>
<!-- Generator: Adobe Illustrator 24.1.2, SVG Export Plug-In . SVG Version: 6.00 Build 0)  -->
<svg version="1.1" id="Слой_3" xmlns="http://www.w3.org/2000/svg" xmlns:xlink="http://www.w3.org/1999/xlink" x="0px" y="0px"
	 viewBox="0 0 130.7 130.7" style="enable-background:new 0 0 130.7 130.7;" xml:space="preserve">
<style type="text/css">
	.st0{fill:#C5A0FC;}
</style>
<path class="st0" d="M108.2,0H22.4C10,0,0,10,0,22.4v85.8c0,12.4,10,22.4,22.4,22.4h85.8c12.4,0,22.4-10,22.4-22.4V22.4
	C130.7,10,120.6,0,108.2,0z M59.7,119.4H22.4c-6.2,0-11.2-5-11.2-11.2V70.9h48.5V119.4z M59.7,59.7H11.2V22.4
	c0-6.2,5-11.2,11.2-11.2h37.3V59.7z M119.4,108.2c0,6.2-5,11.2-11.2,11.2H70.9V70.9h48.5V108.2z M119.4,59.7H70.9V11.2h37.3
	c6.2,0,11.2,5,11.2,11.2V59.7z M21.3,97.9h8.6v7.2c0,3.1,2.5,5.6,5.6,5.6c3.1,0,5.6-2.5,5.6-5.6v-7h7.2c3.1,0,5.6-2.5,5.6-5.6
	c0-3.1-2.5-5.6-5.6-5.6h-7.2v-7.3c0-3.1-2.5-5.6-5.6-5.6c-3.1,0-5.6,2.5-5.6,5.6v7.2h-8.6c-3.1,0-5.6,2.5-5.6,5.6
	C15.7,95.3,18.2,97.9,21.3,97.9z M15.7,36.9c0,3.1,2.5,5.6,5.6,5.6h26.9c3.1,0,5.6-2.5,5.6-5.6c0-3.1-2.5-5.6-5.6-5.6H21.3
	C18.2,31.3,15.7,33.8,15.7,36.9z M81,106.6H108c3.1,0,5.6-2.5,5.6-5.6c0-3.1-2.5-5.6-5.6-5.6H81c-3.1,0-5.6,2.5-5.6,5.6
	C75.4,104,77.9,106.6,81,106.6z M81,93.7H108c3.1,0,5.6-2.5,5.6-5.6c0-3.1-2.5-5.6-5.6-5.6H81c-3.1,0-5.6,2.5-5.6,5.6
	C75.4,91.1,77.9,93.6,81,93.7z M107.7,23c-2.2-2.2-5.8-2.2-8,0l-5.3,5.3L89,23c-2.2-2.2-5.8-2.2-8,0c-2.2,2.2-2.2,5.8,0,8l5.3,5.3
	L81,41.6c-2.2,2.2-2.2,5.8,0,8c2.2,2.2,5.8,2.2,8,0l5.3-5.3l5.3,5.3c2.2,2.2,5.8,2.2,8,0c2.2-2.2,2.2-5.8,0-8l-5.3-5.3l5.3-5.3
	C109.9,28.8,109.9,25.2,107.7,23z"/>
</svg>
