<?xml version="1.0" encoding="utf-8"?>
<!-- Generator: Adobe Illustrator 24.1.2, SVG Export Plug-In . SVG Version: 6.00 Build 0)  -->
<svg version="1.1" id="Слой_3" xmlns="http://www.w3.org/2000/svg" xmlns:xlink="http://www.w3.org/1999/xlink" x="0px" y="0px"
	 viewBox="0 0 19.8 19.8" style="enable-background:new 0 0 19.8 19.8;" xml:space="preserve">
<style type="text/css">
	.st0{fill:#BB90FB;}
</style>
<path class="st0" d="M16.4,0h-13C1.5,0,0,1.5,0,3.4v13c0,1.9,1.5,3.4,3.4,3.4h13c1.9,0,3.4-1.5,3.4-3.4v-13C19.8,1.5,18.2,0,16.4,0z
	 M9,18.1H3.4c-0.9,0-1.7-0.8-1.7-1.7v-5.6H9V18.1z M9,9H1.7V3.4c0-0.9,0.8-1.7,1.7-1.7H9V9z M18.1,16.4c0,0.9-0.8,1.7-1.7,1.7h-5.6
	v-7.3h7.3V16.4z M18.1,9h-7.3V1.7h5.6c0.9,0,1.7,0.8,1.7,1.7V9z M3.2,14.8h1.3v1.1c0,0.5,0.4,0.8,0.8,0.8s0.8-0.4,0.8-0.8v-1.1h1.1
	c0.5,0,0.8-0.4,0.8-0.8c0-0.5-0.4-0.8-0.8-0.8H6.2V12c0-0.5-0.4-0.8-0.8-0.8S4.5,11.5,4.5,12v1.1H3.2c-0.5,0-0.8,0.4-0.8,0.8
	C2.4,14.4,2.8,14.8,3.2,14.8z M2.4,5.6c0,0.5,0.4,0.8,0.8,0.8h4.1c0.5,0,0.8-0.4,0.8-0.8S7.8,4.7,7.3,4.7H3.2
	C2.8,4.7,2.4,5.1,2.4,5.6z M12.2,16.1h4.1c0.5,0,0.8-0.4,0.8-0.8c0-0.5-0.4-0.8-0.8-0.8h-4.1c-0.5,0-0.8,0.4-0.8,0.8
	C11.4,15.7,11.8,16.1,12.2,16.1z M12.2,14.2h4.1c0.5,0,0.8-0.4,0.8-0.8c0-0.5-0.4-0.8-0.8-0.8h-4.1c-0.5,0-0.8,0.4-0.8,0.8
	C11.4,13.8,11.8,14.2,12.2,14.2z M16.3,3.5c-0.3-0.3-0.9-0.3-1.2,0l-0.8,0.8l-0.8-0.8c-0.3-0.3-0.9-0.3-1.2,0
	c-0.3,0.3-0.3,0.9,0,1.2l0.8,0.8l-0.8,0.8c-0.3,0.3-0.3,0.9,0,1.2c0.3,0.3,0.9,0.3,1.2,0l0.8-0.8l0.8,0.8c0.3,0.3,0.9,0.3,1.2,0
	c0.3-0.3,0.3-0.9,0-1.2l-0.8-0.8l0.8-0.8C16.6,4.3,16.6,3.8,16.3,3.5z"/>
</svg>
