<?xml version="1.0" encoding="utf-8"?>
<!-- Generator: Adobe Illustrator 24.1.2, SVG Export Plug-In . SVG Version: 6.00 Build 0)  -->
<svg version="1.1" xmlns="http://www.w3.org/2000/svg" xmlns:xlink="http://www.w3.org/1999/xlink" x="0px" y="0px"
	 viewBox="0 0 40 40" style="enable-background:new 0 0 40 40;" xml:space="preserve">
<style type="text/css">
	.st0{fill:#f3d31c;}
</style>
<g id="Слой_2">
	<path class="st0" d="M17.5,20.9v-1.7h-4.5v-2.9h4.9v-1.8h-6.7v11.2H18V24h-5v-3H17.5z"/>
	<path class="st0" d="M21.5,14.5h-1.4v11.2h1.8v-7.6l5.3,7.6h1.4V14.5h-1.8v7.6L21.5,14.5z"/>
	<path class="st0" d="M20,2c9.9,0,18,8.1,18,18s-8.1,18-18,18c-9.9,0-18-8.1-18-18S10.1,2,20,2 M20,0C9,0,0,9,0,20c0,11,9,20,20,20
		c11,0,20-9,20-20C40,9,31,0,20,0L20,0z"/>
</g>
<g id="Слой_3">
</g>
</svg>
