<?xml version="1.0" encoding="utf-8"?>
<!-- Generator: Adobe Illustrator 24.1.2, SVG Export Plug-In . SVG Version: 6.00 Build 0)  -->
<svg version="1.1" id="Слой_1" xmlns="http://www.w3.org/2000/svg" xmlns:xlink="http://www.w3.org/1999/xlink" x="0px" y="0px"
	 viewBox="0 0 42.9 42.9" style="enable-background:new 0 0 42.9 42.9;" xml:space="preserve">
<style type="text/css">
	.st0{fill-rule:evenodd;clip-rule:evenodd;fill:#7C28F8;}
</style>
<g>
	<path class="st0" d="M21.4,0C9.6,0,0,9.6,0,21.4c0,11.8,9.6,21.4,21.4,21.4c11.8,0,21.4-9.6,21.4-21.4C42.9,9.6,33.3,0,21.4,0z
		 M21.4,40.9c-10.8,0-19.5-8.7-19.5-19.5c0-10.8,8.7-19.5,19.5-19.5c10.8,0,19.5,8.7,19.5,19.5C40.9,32.2,32.2,40.9,21.4,40.9z
		 M32.3,14.6c0-0.2-0.1-0.3-0.2-0.5c0,0,0,0,0,0c0,0,0,0,0,0c-0.1-0.1-0.2-0.3-0.4-0.3c0,0,0,0,0,0c-0.1-0.1-0.3-0.1-0.4-0.2
		c0,0,0,0,0,0c-0.1,0-0.1,0-0.2,0v0H12v0c-0.1,0-0.1,0-0.2,0c0,0,0,0,0,0c-0.2,0-0.3,0.1-0.4,0.2c0,0,0,0,0,0
		c-0.1,0.1-0.3,0.2-0.4,0.3c0,0,0,0,0,0c0,0,0,0,0,0c-0.1,0.1-0.2,0.3-0.2,0.5c0,0,0,0,0,0c0,0.1,0,0.2,0,0.3v13.5
		c0,0.7,0.6,1.3,1.3,1.3h1.4v0h16.2v0H31c0.7,0,1.3-0.5,1.3-1.3V14.9C32.3,14.8,32.3,14.7,32.3,14.6C32.3,14.6,32.3,14.6,32.3,14.6z
		 M29.6,29.5H13.4V17.6l8.1,5.9l8.1-5.9V29.5z M21.5,20.2L21.5,20.2L21.5,20.2l-8.7-6.3h17.4L21.5,20.2z"/>
</g>
</svg>
