<?xml version="1.0" encoding="utf-8"?>
<!-- Generator: Adobe Illustrator 24.1.2, SVG Export Plug-In . SVG Version: 6.00 Build 0)  -->
<svg version="1.1" xmlns="http://www.w3.org/2000/svg" xmlns:xlink="http://www.w3.org/1999/xlink" x="0px" y="0px"
	 viewBox="0 0 40 40" style="enable-background:new 0 0 40 40;" xml:space="preserve">
<style type="text/css">
	.st0{fill:#B98FFD;}
</style>
<g id="Слой_2">
</g>
<g id="Слой_3">
	<path class="st0" d="M20,2c9.9,0,18,8.1,18,18s-8.1,18-18,18c-9.9,0-18-8.1-18-18S10.1,2,20,2 M20,0C9,0,0,9,0,20s9,20,20,20
		c11,0,20-9,20-20S31,0,20,0L20,0z"/>
	<path class="st0" d="M17.1,21.4c0.7-0.3,1.2-0.7,1.6-1.3c0.4-0.6,0.6-1.2,0.6-2c0-1-0.4-1.9-1.1-2.5c-0.7-0.7-1.5-1.1-2.5-1.1h-4.5
		v11.2h1.8v-4.1h2.2l2.4,4.1h2L17.1,21.4z M16.9,16.8c0.3,0.4,0.5,0.8,0.5,1.3c0,0.5-0.2,1-0.5,1.3c-0.3,0.4-0.8,0.5-1.2,0.5h-2.6
		v-3.7h2.6C16.2,16.3,16.6,16.4,16.9,16.8z"/>
	<path class="st0" d="M22.4,24.9c0.8,0.7,1.8,1.1,3.1,1.1c1.3,0,2.3-0.4,3.1-1.1c0.8-0.7,1.2-1.7,1.2-2.9v-7.5h-1.8v7.4
		c0,0.7-0.2,1.2-0.6,1.6c-0.4,0.4-1,0.6-1.8,0.6c-0.8,0-1.4-0.2-1.8-0.6c-0.4-0.4-0.6-0.9-0.6-1.6v-7.4h-1.8V22
		C21.2,23.2,21.6,24.2,22.4,24.9L22.4,24.9z"/>
</g>
</svg>
