<?xml version="1.0" encoding="utf-8"?>
<!-- Generator: Adobe Illustrator 24.1.2, SVG Export Plug-In . SVG Version: 6.00 Build 0)  -->
<svg version="1.1" id="Слой_1" xmlns="http://www.w3.org/2000/svg" xmlns:xlink="http://www.w3.org/1999/xlink" x="0px" y="0px"
	 viewBox="0 0 42.9 42.9" style="enable-background:new 0 0 42.9 42.9;" xml:space="preserve">
<style type="text/css">
	.st0{fill-rule:evenodd;clip-rule:evenodd;fill:#7C28F8;}
</style>
<g>
	<path class="st0" d="M21.4,0C9.6,0,0,9.6,0,21.4c0,11.8,9.6,21.4,21.4,21.4c11.8,0,21.4-9.6,21.4-21.4C42.9,9.6,33.3,0,21.4,0z
		 M21.4,40.9c-10.8,0-19.5-8.7-19.5-19.5c0-10.8,8.7-19.5,19.5-19.5c10.8,0,19.5,8.7,19.5,19.5C40.9,32.2,32.2,40.9,21.4,40.9z
		 M31.6,21.6c0-5.6-4.5-10.1-10.1-10.1c-0.7,0-1.3,0.1-1.9,0.2c-0.9-0.5-1.9-0.8-3-0.8c-3.2,0-5.9,2.6-5.9,5.9c0,1.1,0.3,2.1,0.8,3
		c-0.1,0.6-0.2,1.3-0.2,1.9c0,5.6,4.5,10.1,10.1,10.1c0.7,0,1.3-0.1,1.9-0.2c0.9,0.5,1.9,0.8,3,0.8c3.2,0,5.9-2.6,5.9-5.9
		c0-1.1-0.3-2.1-0.8-3C31.6,22.9,31.6,22.2,31.6,21.6z M21.7,28.5c-3.6,0-5.4-1.4-6-3c-0.6-1.7,0.7-2.2,1-2.2c0.4,0,1.2,0.1,1.4,0.8
		c0.2,0.7,1,2.2,2.8,2.4c1.7,0.2,2.9-0.6,3.2-1.5c0.3-0.8-0.3-2-2.9-2.4c-2.7-0.4-5.4-1.6-5.4-4.2c0-2.7,3-3.7,6-3.7
		c2.9,0,4.4,1.6,4.7,2.3c0.4,0.8,0.3,2.1-0.7,2.4c-1,0.2-1.5-0.3-2.3-1.7c-0.8-1.4-3.4-1-4.3-0.2c-0.9,0.8-0.7,1.9,3.1,2.7
		c3.7,0.7,5.1,2.1,5.1,4.2C27.4,26.3,25.3,28.5,21.7,28.5z"/>
</g>
</svg>
