<?xml version="1.0" encoding="utf-8"?>
<!-- Generator: Adobe Illustrator 24.1.2, SVG Export Plug-In . SVG Version: 6.00 Build 0)  -->
<svg version="1.1" id="Слой_1" xmlns="http://www.w3.org/2000/svg" xmlns:xlink="http://www.w3.org/1999/xlink" x="0px" y="0px"
	 viewBox="0 0 42.9 42.9" style="enable-background:new 0 0 42.9 42.9;" xml:space="preserve">
<style type="text/css">
	.st0{fill-rule:evenodd;clip-rule:evenodd;fill:#7C28F8;}
</style>
<g>
	<path class="st0" d="M21.4,0C9.6,0,0,9.6,0,21.4s9.6,21.4,21.4,21.4c11.8,0,21.4-9.6,21.4-21.4S33.3,0,21.4,0z M21.4,40.9
		c-10.8,0-19.5-8.7-19.5-19.5c0-10.8,8.7-19.5,19.5-19.5c10.8,0,19.5,8.7,19.5,19.5C40.9,32.2,32.2,40.9,21.4,40.9z M29.1,13.2
		l-18.8,7.5c-0.6,0.2-0.6,1.1,0.1,1.3l4.8,1.4l1.8,5.8c0.2,0.6,0.9,0.8,1.4,0.3l2.5-2.6l4.9,3.7c0.6,0.4,1.4,0.1,1.6-0.6l3.2-15.7
		C30.5,13.6,29.8,12.9,29.1,13.2z M26.7,16.7L18,24.6c-0.1,0.1-0.1,0.2-0.2,0.3L17.5,28c0,0.1-0.1,0.1-0.2,0l-1.4-4.6
		c-0.1-0.2,0-0.4,0.2-0.6l10.3-6.6C26.7,16.2,26.9,16.5,26.7,16.7z"/>
</g>
</svg>
